<mxfile host="app.diagrams.net" agent="Mozilla/5.0 (Windows NT 10.0; Win64; x64) AppleWebKit/537.36 (KHTML, like Gecko) Chrome/132.0.0.0 Safari/537.36" version="26.0.11">
  <diagram name="Pagina-1" id="0KHFtMqvjMNVidDmWJyS">
    <mxGraphModel dx="2442" dy="803" grid="1" gridSize="10" guides="1" tooltips="1" connect="1" arrows="1" fold="1" page="1" pageScale="1" pageWidth="827" pageHeight="1169" math="0" shadow="0">
      <root>
        <mxCell id="0" />
        <mxCell id="1" parent="0" />
        <mxCell id="PCrYcrfAAzAnU5ffETCO-3" value="" style="edgeStyle=orthogonalEdgeStyle;rounded=0;orthogonalLoop=1;jettySize=auto;html=1;" edge="1" parent="1" source="PCrYcrfAAzAnU5ffETCO-1" target="PCrYcrfAAzAnU5ffETCO-2">
          <mxGeometry relative="1" as="geometry" />
        </mxCell>
        <mxCell id="PCrYcrfAAzAnU5ffETCO-1" value="start" style="ellipse;whiteSpace=wrap;html=1;" vertex="1" parent="1">
          <mxGeometry x="330" y="10" width="120" height="80" as="geometry" />
        </mxCell>
        <mxCell id="PCrYcrfAAzAnU5ffETCO-5" value="" style="edgeStyle=orthogonalEdgeStyle;rounded=0;orthogonalLoop=1;jettySize=auto;html=1;" edge="1" parent="1" source="PCrYcrfAAzAnU5ffETCO-2" target="PCrYcrfAAzAnU5ffETCO-4">
          <mxGeometry relative="1" as="geometry" />
        </mxCell>
        <mxCell id="PCrYcrfAAzAnU5ffETCO-2" value="sum = 0&lt;div&gt;n = 0&amp;nbsp;&lt;/div&gt;&lt;div&gt;prodotto = 1&lt;/div&gt;&lt;div&gt;&lt;br&gt;&lt;/div&gt;&lt;div&gt;i = 0&amp;nbsp;&lt;/div&gt;&lt;div&gt;&lt;br&gt;&lt;/div&gt;" style="whiteSpace=wrap;html=1;" vertex="1" parent="1">
          <mxGeometry x="330" y="100" width="120" height="100" as="geometry" />
        </mxCell>
        <mxCell id="PCrYcrfAAzAnU5ffETCO-50" value="" style="edgeStyle=orthogonalEdgeStyle;rounded=0;orthogonalLoop=1;jettySize=auto;html=1;" edge="1" parent="1" source="PCrYcrfAAzAnU5ffETCO-4" target="PCrYcrfAAzAnU5ffETCO-6">
          <mxGeometry relative="1" as="geometry" />
        </mxCell>
        <mxCell id="PCrYcrfAAzAnU5ffETCO-4" value="read n&amp;nbsp;" style="shape=parallelogram;perimeter=parallelogramPerimeter;whiteSpace=wrap;html=1;fixedSize=1;" vertex="1" parent="1">
          <mxGeometry x="330" y="220" width="120" height="60" as="geometry" />
        </mxCell>
        <mxCell id="PCrYcrfAAzAnU5ffETCO-9" value="" style="edgeStyle=orthogonalEdgeStyle;rounded=0;orthogonalLoop=1;jettySize=auto;html=1;" edge="1" parent="1" source="PCrYcrfAAzAnU5ffETCO-6" target="PCrYcrfAAzAnU5ffETCO-8">
          <mxGeometry relative="1" as="geometry" />
        </mxCell>
        <mxCell id="PCrYcrfAAzAnU5ffETCO-52" value="true" style="edgeLabel;html=1;align=center;verticalAlign=middle;resizable=0;points=[];" vertex="1" connectable="0" parent="PCrYcrfAAzAnU5ffETCO-9">
          <mxGeometry x="-0.8197" y="-4" relative="1" as="geometry">
            <mxPoint y="-1" as="offset" />
          </mxGeometry>
        </mxCell>
        <mxCell id="PCrYcrfAAzAnU5ffETCO-53" value="true" style="edgeLabel;html=1;align=center;verticalAlign=middle;resizable=0;points=[];" vertex="1" connectable="0" parent="PCrYcrfAAzAnU5ffETCO-9">
          <mxGeometry x="0.6333" y="1" relative="1" as="geometry">
            <mxPoint y="-1" as="offset" />
          </mxGeometry>
        </mxCell>
        <mxCell id="PCrYcrfAAzAnU5ffETCO-62" style="edgeStyle=orthogonalEdgeStyle;rounded=0;orthogonalLoop=1;jettySize=auto;html=1;entryX=0.5;entryY=0;entryDx=0;entryDy=0;" edge="1" parent="1" source="PCrYcrfAAzAnU5ffETCO-6" target="PCrYcrfAAzAnU5ffETCO-60">
          <mxGeometry relative="1" as="geometry" />
        </mxCell>
        <mxCell id="PCrYcrfAAzAnU5ffETCO-63" value="false" style="edgeLabel;html=1;align=center;verticalAlign=middle;resizable=0;points=[];" vertex="1" connectable="0" parent="PCrYcrfAAzAnU5ffETCO-62">
          <mxGeometry x="0.0124" y="1" relative="1" as="geometry">
            <mxPoint x="1" as="offset" />
          </mxGeometry>
        </mxCell>
        <mxCell id="PCrYcrfAAzAnU5ffETCO-70" value="false" style="edgeLabel;html=1;align=center;verticalAlign=middle;resizable=0;points=[];" vertex="1" connectable="0" parent="PCrYcrfAAzAnU5ffETCO-62">
          <mxGeometry x="-0.7568" y="2" relative="1" as="geometry">
            <mxPoint x="1" as="offset" />
          </mxGeometry>
        </mxCell>
        <mxCell id="PCrYcrfAAzAnU5ffETCO-6" value="n % 2 == 0&lt;div&gt;&lt;br&gt;&lt;/div&gt;&lt;div&gt;&amp;nbsp;&lt;/div&gt;" style="rhombus;whiteSpace=wrap;html=1;" vertex="1" parent="1">
          <mxGeometry x="310" y="330" width="160" height="80" as="geometry" />
        </mxCell>
        <mxCell id="PCrYcrfAAzAnU5ffETCO-11" value="" style="edgeStyle=orthogonalEdgeStyle;rounded=0;orthogonalLoop=1;jettySize=auto;html=1;" edge="1" parent="1" source="PCrYcrfAAzAnU5ffETCO-8" target="PCrYcrfAAzAnU5ffETCO-10">
          <mxGeometry relative="1" as="geometry" />
        </mxCell>
        <mxCell id="PCrYcrfAAzAnU5ffETCO-8" value="sum = sum + i" style="whiteSpace=wrap;html=1;" vertex="1" parent="1">
          <mxGeometry x="330" y="590" width="120" height="60" as="geometry" />
        </mxCell>
        <mxCell id="PCrYcrfAAzAnU5ffETCO-57" style="edgeStyle=orthogonalEdgeStyle;rounded=0;orthogonalLoop=1;jettySize=auto;html=1;" edge="1" parent="1" source="PCrYcrfAAzAnU5ffETCO-10">
          <mxGeometry relative="1" as="geometry">
            <mxPoint x="270" y="500" as="targetPoint" />
          </mxGeometry>
        </mxCell>
        <mxCell id="PCrYcrfAAzAnU5ffETCO-10" value="i += 4" style="whiteSpace=wrap;html=1;" vertex="1" parent="1">
          <mxGeometry x="330" y="680" width="120" height="60" as="geometry" />
        </mxCell>
        <mxCell id="PCrYcrfAAzAnU5ffETCO-55" value="" style="edgeStyle=orthogonalEdgeStyle;rounded=0;orthogonalLoop=1;jettySize=auto;html=1;" edge="1" parent="1" source="PCrYcrfAAzAnU5ffETCO-51" target="PCrYcrfAAzAnU5ffETCO-54">
          <mxGeometry relative="1" as="geometry" />
        </mxCell>
        <mxCell id="PCrYcrfAAzAnU5ffETCO-56" value="false" style="edgeLabel;html=1;align=center;verticalAlign=middle;resizable=0;points=[];" vertex="1" connectable="0" parent="PCrYcrfAAzAnU5ffETCO-55">
          <mxGeometry x="-0.1141" y="3" relative="1" as="geometry">
            <mxPoint x="-1" as="offset" />
          </mxGeometry>
        </mxCell>
        <mxCell id="PCrYcrfAAzAnU5ffETCO-51" value="i&amp;lt;=n" style="rhombus;whiteSpace=wrap;html=1;" vertex="1" parent="1">
          <mxGeometry x="350" y="460" width="80" height="80" as="geometry" />
        </mxCell>
        <mxCell id="PCrYcrfAAzAnU5ffETCO-87" value="" style="edgeStyle=orthogonalEdgeStyle;rounded=0;orthogonalLoop=1;jettySize=auto;html=1;" edge="1" parent="1" source="PCrYcrfAAzAnU5ffETCO-54" target="PCrYcrfAAzAnU5ffETCO-86">
          <mxGeometry relative="1" as="geometry">
            <Array as="points">
              <mxPoint x="550" y="930" />
            </Array>
          </mxGeometry>
        </mxCell>
        <mxCell id="PCrYcrfAAzAnU5ffETCO-54" value="" style="shape=waypoint;sketch=0;size=6;pointerEvents=1;points=[];fillColor=default;resizable=0;rotatable=0;perimeter=centerPerimeter;snapToPoint=1;" vertex="1" parent="1">
          <mxGeometry x="540" y="490" width="20" height="20" as="geometry" />
        </mxCell>
        <mxCell id="PCrYcrfAAzAnU5ffETCO-58" value="" style="endArrow=classic;html=1;rounded=0;entryX=0;entryY=0.5;entryDx=0;entryDy=0;" edge="1" parent="1" target="PCrYcrfAAzAnU5ffETCO-51">
          <mxGeometry width="50" height="50" relative="1" as="geometry">
            <mxPoint x="270" y="500" as="sourcePoint" />
            <mxPoint x="320" y="460" as="targetPoint" />
          </mxGeometry>
        </mxCell>
        <mxCell id="PCrYcrfAAzAnU5ffETCO-66" value="" style="edgeStyle=orthogonalEdgeStyle;rounded=0;orthogonalLoop=1;jettySize=auto;html=1;" edge="1" parent="1" source="PCrYcrfAAzAnU5ffETCO-59" target="PCrYcrfAAzAnU5ffETCO-65">
          <mxGeometry relative="1" as="geometry" />
        </mxCell>
        <mxCell id="PCrYcrfAAzAnU5ffETCO-71" value="true" style="edgeLabel;html=1;align=center;verticalAlign=middle;resizable=0;points=[];" vertex="1" connectable="0" parent="PCrYcrfAAzAnU5ffETCO-66">
          <mxGeometry x="-0.4962" y="-1" relative="1" as="geometry">
            <mxPoint y="-1" as="offset" />
          </mxGeometry>
        </mxCell>
        <mxCell id="PCrYcrfAAzAnU5ffETCO-73" value="" style="edgeStyle=orthogonalEdgeStyle;rounded=0;orthogonalLoop=1;jettySize=auto;html=1;" edge="1" parent="1" source="PCrYcrfAAzAnU5ffETCO-59" target="PCrYcrfAAzAnU5ffETCO-72">
          <mxGeometry relative="1" as="geometry" />
        </mxCell>
        <mxCell id="PCrYcrfAAzAnU5ffETCO-74" value="false" style="edgeLabel;html=1;align=center;verticalAlign=middle;resizable=0;points=[];" vertex="1" connectable="0" parent="PCrYcrfAAzAnU5ffETCO-73">
          <mxGeometry x="0.0872" y="4" relative="1" as="geometry">
            <mxPoint x="-1" as="offset" />
          </mxGeometry>
        </mxCell>
        <mxCell id="PCrYcrfAAzAnU5ffETCO-59" value="i &amp;lt;= n" style="rhombus;whiteSpace=wrap;html=1;" vertex="1" parent="1">
          <mxGeometry x="50" y="530" width="80" height="80" as="geometry" />
        </mxCell>
        <mxCell id="PCrYcrfAAzAnU5ffETCO-64" value="" style="edgeStyle=orthogonalEdgeStyle;rounded=0;orthogonalLoop=1;jettySize=auto;html=1;" edge="1" parent="1" source="PCrYcrfAAzAnU5ffETCO-60" target="PCrYcrfAAzAnU5ffETCO-59">
          <mxGeometry relative="1" as="geometry" />
        </mxCell>
        <mxCell id="PCrYcrfAAzAnU5ffETCO-79" style="edgeStyle=orthogonalEdgeStyle;rounded=0;orthogonalLoop=1;jettySize=auto;html=1;" edge="1" parent="1" source="PCrYcrfAAzAnU5ffETCO-60">
          <mxGeometry relative="1" as="geometry">
            <mxPoint x="-200" y="530" as="targetPoint" />
          </mxGeometry>
        </mxCell>
        <mxCell id="PCrYcrfAAzAnU5ffETCO-80" value="false" style="edgeLabel;html=1;align=center;verticalAlign=middle;resizable=0;points=[];" vertex="1" connectable="0" parent="PCrYcrfAAzAnU5ffETCO-79">
          <mxGeometry x="-0.4449" y="-1" relative="1" as="geometry">
            <mxPoint x="-1" as="offset" />
          </mxGeometry>
        </mxCell>
        <mxCell id="PCrYcrfAAzAnU5ffETCO-60" value="n % 2 == 1" style="rhombus;whiteSpace=wrap;html=1;" vertex="1" parent="1">
          <mxGeometry x="50" y="410" width="80" height="80" as="geometry" />
        </mxCell>
        <mxCell id="PCrYcrfAAzAnU5ffETCO-68" value="" style="edgeStyle=orthogonalEdgeStyle;rounded=0;orthogonalLoop=1;jettySize=auto;html=1;" edge="1" parent="1" source="PCrYcrfAAzAnU5ffETCO-65" target="PCrYcrfAAzAnU5ffETCO-67">
          <mxGeometry relative="1" as="geometry" />
        </mxCell>
        <mxCell id="PCrYcrfAAzAnU5ffETCO-65" value="prodotto = prodotto * i" style="whiteSpace=wrap;html=1;" vertex="1" parent="1">
          <mxGeometry x="30" y="650" width="120" height="60" as="geometry" />
        </mxCell>
        <mxCell id="PCrYcrfAAzAnU5ffETCO-77" value="" style="edgeStyle=orthogonalEdgeStyle;rounded=0;orthogonalLoop=1;jettySize=auto;html=1;" edge="1" parent="1" source="PCrYcrfAAzAnU5ffETCO-67" target="PCrYcrfAAzAnU5ffETCO-76">
          <mxGeometry relative="1" as="geometry" />
        </mxCell>
        <mxCell id="PCrYcrfAAzAnU5ffETCO-67" value="i += 2" style="whiteSpace=wrap;html=1;" vertex="1" parent="1">
          <mxGeometry x="30" y="740" width="120" height="60" as="geometry" />
        </mxCell>
        <mxCell id="PCrYcrfAAzAnU5ffETCO-69" value="i = 1" style="rounded=0;whiteSpace=wrap;html=1;" vertex="1" parent="1">
          <mxGeometry x="120" y="340" width="120" height="60" as="geometry" />
        </mxCell>
        <mxCell id="PCrYcrfAAzAnU5ffETCO-85" style="edgeStyle=orthogonalEdgeStyle;rounded=0;orthogonalLoop=1;jettySize=auto;html=1;" edge="1" parent="1" source="PCrYcrfAAzAnU5ffETCO-72">
          <mxGeometry relative="1" as="geometry">
            <mxPoint x="-70" y="930" as="targetPoint" />
          </mxGeometry>
        </mxCell>
        <mxCell id="PCrYcrfAAzAnU5ffETCO-72" value="" style="shape=waypoint;sketch=0;size=6;pointerEvents=1;points=[];fillColor=default;resizable=0;rotatable=0;perimeter=centerPerimeter;snapToPoint=1;" vertex="1" parent="1">
          <mxGeometry x="-80" y="560" width="20" height="20" as="geometry" />
        </mxCell>
        <mxCell id="PCrYcrfAAzAnU5ffETCO-78" value="" style="edgeStyle=orthogonalEdgeStyle;rounded=0;orthogonalLoop=1;jettySize=auto;html=1;" edge="1" parent="1" source="PCrYcrfAAzAnU5ffETCO-76" target="PCrYcrfAAzAnU5ffETCO-59">
          <mxGeometry relative="1" as="geometry" />
        </mxCell>
        <mxCell id="PCrYcrfAAzAnU5ffETCO-76" value="" style="shape=waypoint;sketch=0;size=6;pointerEvents=1;points=[];fillColor=default;resizable=0;rotatable=0;perimeter=centerPerimeter;snapToPoint=1;" vertex="1" parent="1">
          <mxGeometry x="190" y="560" width="20" height="20" as="geometry" />
        </mxCell>
        <mxCell id="PCrYcrfAAzAnU5ffETCO-83" value="" style="edgeStyle=orthogonalEdgeStyle;rounded=0;orthogonalLoop=1;jettySize=auto;html=1;" edge="1" parent="1" source="PCrYcrfAAzAnU5ffETCO-81" target="PCrYcrfAAzAnU5ffETCO-82">
          <mxGeometry relative="1" as="geometry" />
        </mxCell>
        <mxCell id="PCrYcrfAAzAnU5ffETCO-89" value="true" style="edgeLabel;html=1;align=center;verticalAlign=middle;resizable=0;points=[];" vertex="1" connectable="0" parent="PCrYcrfAAzAnU5ffETCO-83">
          <mxGeometry x="-0.4227" y="-2" relative="1" as="geometry">
            <mxPoint y="1" as="offset" />
          </mxGeometry>
        </mxCell>
        <mxCell id="PCrYcrfAAzAnU5ffETCO-81" value="n &amp;lt; 0" style="rhombus;whiteSpace=wrap;html=1;" vertex="1" parent="1">
          <mxGeometry x="-240" y="530" width="80" height="80" as="geometry" />
        </mxCell>
        <mxCell id="PCrYcrfAAzAnU5ffETCO-82" value="read errore" style="shape=parallelogram;perimeter=parallelogramPerimeter;whiteSpace=wrap;html=1;fixedSize=1;" vertex="1" parent="1">
          <mxGeometry x="-260" y="650" width="120" height="60" as="geometry" />
        </mxCell>
        <mxCell id="PCrYcrfAAzAnU5ffETCO-88" value="" style="edgeStyle=orthogonalEdgeStyle;rounded=0;orthogonalLoop=1;jettySize=auto;html=1;" edge="1" parent="1" source="PCrYcrfAAzAnU5ffETCO-82" target="PCrYcrfAAzAnU5ffETCO-86">
          <mxGeometry relative="1" as="geometry">
            <mxPoint x="210" y="932.4615009014423" as="targetPoint" />
            <mxPoint x="-200" y="710" as="sourcePoint" />
            <Array as="points">
              <mxPoint x="-70" y="680" />
              <mxPoint x="-70" y="930" />
            </Array>
          </mxGeometry>
        </mxCell>
        <mxCell id="PCrYcrfAAzAnU5ffETCO-91" value="" style="edgeStyle=orthogonalEdgeStyle;rounded=0;orthogonalLoop=1;jettySize=auto;html=1;" edge="1" parent="1" source="PCrYcrfAAzAnU5ffETCO-86" target="PCrYcrfAAzAnU5ffETCO-90">
          <mxGeometry relative="1" as="geometry" />
        </mxCell>
        <mxCell id="PCrYcrfAAzAnU5ffETCO-86" value="" style="shape=waypoint;sketch=0;size=6;pointerEvents=1;points=[];fillColor=default;resizable=0;rotatable=0;perimeter=centerPerimeter;snapToPoint=1;" vertex="1" parent="1">
          <mxGeometry x="190" y="920" width="20" height="20" as="geometry" />
        </mxCell>
        <mxCell id="PCrYcrfAAzAnU5ffETCO-90" value="end" style="ellipse;whiteSpace=wrap;html=1;sketch=0;pointerEvents=1;resizable=0;" vertex="1" parent="1">
          <mxGeometry x="160" y="990" width="80" height="80" as="geometry" />
        </mxCell>
        <mxCell id="PCrYcrfAAzAnU5ffETCO-92" value="read prodotto" style="shape=parallelogram;perimeter=parallelogramPerimeter;whiteSpace=wrap;html=1;fixedSize=1;" vertex="1" parent="1">
          <mxGeometry x="-130" y="600" width="120" height="60" as="geometry" />
        </mxCell>
        <mxCell id="PCrYcrfAAzAnU5ffETCO-93" value="read sum" style="shape=parallelogram;perimeter=parallelogramPerimeter;whiteSpace=wrap;html=1;fixedSize=1;" vertex="1" parent="1">
          <mxGeometry x="480" y="580" width="120" height="60" as="geometry" />
        </mxCell>
      </root>
    </mxGraphModel>
  </diagram>
</mxfile>
